<?xml version="1.0" encoding="UTF-8" standalone="no"?>
<!-- Created with Inkscape (http://www.inkscape.org/) -->

<svg
   xmlns:dc="http://purl.org/dc/elements/1.1/"
   xmlns:cc="http://creativecommons.org/ns#"
   xmlns:rdf="http://www.w3.org/1999/02/22-rdf-syntax-ns#"
   xmlns:svg="http://www.w3.org/2000/svg"
   xmlns="http://www.w3.org/2000/svg"
   xmlns:sodipodi="http://sodipodi.sourceforge.net/DTD/sodipodi-0.dtd"
   xmlns:inkscape="http://www.inkscape.org/namespaces/inkscape"
   width="210mm"
   height="210mm"
   viewBox="0 0 210 210"
   version="1.1"
   id="svg8"
   inkscape:version="0.92.4 (5da689c313, 2019-01-14)"
   sodipodi:docname="switchdeck_logo_red.svg"
   inkscape:export-filename="D:\prjki\switchdeck\staticfiles\img\switchdeck_logo_red.png"
   inkscape:export-xdpi="96"
   inkscape:export-ydpi="96">
  <title
     id="title38921">SwitchDeck Logo</title>
  <defs
     id="defs2" />
  <sodipodi:namedview
     id="base"
     pagecolor="#ffffff"
     bordercolor="#666666"
     borderopacity="1.0"
     inkscape:pageopacity="0.0"
     inkscape:pageshadow="2"
     inkscape:zoom="0.35"
     inkscape:cx="-174.99724"
     inkscape:cy="390.27002"
     inkscape:document-units="mm"
     inkscape:current-layer="layer1"
     showgrid="false"
     inkscape:window-width="866"
     inkscape:window-height="643"
     inkscape:window-x="408"
     inkscape:window-y="120"
     inkscape:window-maximized="0"
     showguides="true"
     inkscape:guide-bbox="true">
    <sodipodi:guide
       position="15,254.37797"
       orientation="1,0"
       id="guide5120"
       inkscape:locked="false"
       inkscape:label=""
       inkscape:color="rgb(0,0,255)" />
    <sodipodi:guide
       position="-27.592261,14.741071"
       orientation="0,1"
       id="guide5122"
       inkscape:locked="false" />
    <sodipodi:guide
       position="115,194.09077"
       orientation="1,0"
       id="guide38917"
       inkscape:locked="false"
       inkscape:label=""
       inkscape:color="rgb(0,0,255)" />
    <sodipodi:guide
       position="94.999998,162.52976"
       orientation="1,0"
       id="guide38959"
       inkscape:locked="false"
       inkscape:label=""
       inkscape:color="rgb(0,0,255)" />
    <sodipodi:guide
       position="195,194.65773"
       orientation="1,0"
       id="guide38961"
       inkscape:locked="false"
       inkscape:label=""
       inkscape:color="rgb(0,0,255)" />
    <sodipodi:guide
       position="-43.467261,195"
       orientation="0,1"
       id="guide38963"
       inkscape:locked="false"
       inkscape:label=""
       inkscape:color="rgb(0,0,255)" />
  </sodipodi:namedview>
  <metadata
     id="metadata5">
    <rdf:RDF>
      <cc:Work
         rdf:about="">
        <dc:format>image/svg+xml</dc:format>
        <dc:type
           rdf:resource="http://purl.org/dc/dcmitype/StillImage" />
        <dc:title>SwitchDeck Logo</dc:title>
      </cc:Work>
    </rdf:RDF>
  </metadata>
  <g
     inkscape:label="halfs"
     inkscape:groupmode="layer"
     id="layer1"
     transform="translate(0,-87)">
    <path
       style="color:#000000;font-style:normal;font-variant:normal;font-weight:normal;font-stretch:normal;font-size:medium;line-height:normal;font-family:sans-serif;font-variant-ligatures:normal;font-variant-position:normal;font-variant-caps:normal;font-variant-numeric:normal;font-variant-alternates:normal;font-feature-settings:normal;text-indent:0;text-align:start;text-decoration:none;text-decoration-line:none;text-decoration-style:solid;text-decoration-color:#000000;letter-spacing:normal;word-spacing:normal;text-transform:none;writing-mode:lr-tb;direction:ltr;text-orientation:mixed;dominant-baseline:auto;baseline-shift:baseline;text-anchor:start;white-space:normal;shape-padding:0;clip-rule:nonzero;display:inline;overflow:visible;visibility:visible;opacity:1;isolation:auto;mix-blend-mode:normal;color-interpolation:sRGB;color-interpolation-filters:linearRGB;solid-color:#000000;solid-opacity:1;vector-effect:none;fill:#ff0001;fill-opacity:1;fill-rule:nonzero;stroke:none;stroke-width:11.00162411;stroke-linecap:butt;stroke-linejoin:miter;stroke-miterlimit:4;stroke-dasharray:none;stroke-dashoffset:0;stroke-opacity:1;color-rendering:auto;image-rendering:auto;shape-rendering:auto;text-rendering:auto;enable-background:accumulate"
       d="m 56.382731,102 c -22.661393,0 -41.183571,18.98534 -41.274668,41.62878 h -0.0021 v 0.13114 c -1.1e-5,0.0116 -4.72e-4,0.0245 -4.72e-4,0.0358 v 6.68045 h 4.72e-4 v 5.58083 l 0,77.72524 h -0.01088 v 6.68038 c 10e-7,22.71739 18.559683,41.79631 41.277033,41.79631 H 63.052605 95 v -13.44296 l 0,-153.30839 v -13.4443 H 89.11762 81.556463 63.063174 v -0.0632 z m 0.519813,13.49087 v 0.0161 h 6.16017 l 4.76e-4,21.83066 v -21.83039 h 18.493288 v 11.7679 l 0,141.54048 H 63.052783 v -35.03297 l -4.74e-4,35.03306 H 57.366542 C 35.959899,266.86082 29.416463,254.36226 28.549858,237.25962 v -3.47688 h 34.502925 l -34.502925,-9.4e-4 0,-83.30356 12.490622,-5.2e-4 c -0.01759,0.23877 -0.02948,0.47816 -0.03588,0.71754 1.52e-4,8.50237 6.892819,15.39476 15.39523,15.39464 8.502223,-1.6e-4 15.3946,-6.89248 15.39475,-15.39464 -0.009,-5.91229 -3.401603,-11.29756 -8.731321,-13.85673 v -3.2e-4 c -2.077734,-1.0059 -4.35506,-1.53164 -6.663429,-1.53825 -8.215834,0.0104 -14.975976,6.46983 -15.359284,14.67673 H 28.549865 v -3.22895 c 0.810301,-17.10079 7.224269,-29.6502 28.352688,-31.75687 z"
       id="path4506-0"
       inkscape:connector-curvature="0"
       sodipodi:nodetypes="ccccscccccssccccccccccccccccccccccccccccccccccccccc"
       inkscape:label="half1" />
    <path
       sodipodi:nodetypes="ccccscccccssccccccccccccccccccc"
       inkscape:connector-curvature="0"
       id="path38919"
       d="m 153.79586,101.90158 c 22.76632,0 41.37417,19.07321 41.46573,41.82144 h 0.002 v 0.13174 c 1e-5,0.0115 5e-4,0.0246 5e-4,0.036 v 6.71135 h -5e-4 v 5.60667 77.34911 h 0.0112 v 6.7113 c 0,22.82252 -18.6456,41.98974 -41.46813,41.98974 H 147.09536 115 V 268.75356 115.47152 101.96501 h 5.90977 7.59619 18.57878 v -0.0635 z m -0.52223,13.55331 v 0.0162 h -24.76802 v 153.28204 h 24.30183 c 21.5058,-1.96406 28.07939,-14.52056 28.94999,-31.70222 8e-5,-115.72556 -1e-5,18.89784 5e-5,-89.69273 -0.81405,-17.17993 -7.25758,-29.78738 -28.48382,-31.90383 z"
       style="color:#000000;font-style:normal;font-variant:normal;font-weight:normal;font-stretch:normal;font-size:medium;line-height:normal;font-family:sans-serif;font-variant-ligatures:normal;font-variant-position:normal;font-variant-caps:normal;font-variant-numeric:normal;font-variant-alternates:normal;font-feature-settings:normal;text-indent:0;text-align:start;text-decoration:none;text-decoration-line:none;text-decoration-style:solid;text-decoration-color:#000000;letter-spacing:normal;word-spacing:normal;text-transform:none;writing-mode:lr-tb;direction:ltr;text-orientation:mixed;dominant-baseline:auto;baseline-shift:baseline;text-anchor:start;white-space:normal;shape-padding:0;clip-rule:nonzero;display:inline;overflow:visible;visibility:visible;opacity:1;isolation:auto;mix-blend-mode:normal;color-interpolation:sRGB;color-interpolation-filters:linearRGB;solid-color:#000000;solid-opacity:1;vector-effect:none;fill:#ff0001;fill-opacity:1;fill-rule:nonzero;stroke:none;stroke-width:11.05253792;stroke-linecap:butt;stroke-linejoin:miter;stroke-miterlimit:4;stroke-dasharray:none;stroke-dashoffset:0;stroke-opacity:1;color-rendering:auto;image-rendering:auto;shape-rendering:auto;text-rendering:auto;enable-background:accumulate"
       inkscape:label="half2" />
  </g>
</svg>
